# File produced by Open Asset Import Library (http://www.assimp.sf.net)
# (assimp v5.4.4108939008)

mtllib paperball.mtl

# 384 vertex positions
v 0.01462154 0.0217419453 -0.034957543
v 0.0300636217 0.0222879834 -0.0252587982
v 0.0225571636 0.0402218476 0.00209191791
v 0.01462154 0.0217419453 -0.034957543
v 0.0225571636 0.0402218476 0.00209191791
v 0.00446917582 0.043616347 -0.00975051802
v -0.0280834977 0.0231016483 0.00121002959
v -0.0332091637 0.0289661977 -0.015067026
v -0.00632501952 0.0457027815 -0.00616411399
v -0.0280834977 0.0231016483 0.00121002959
v -0.00632501952 0.0457027815 -0.00616411399
v 0.00306655373 0.0303601157 -0.00258763763
v 0.0140223252 -0.0285650026 0.0249026008
v 0.01741351 -0.00716712931 0.0259124655
v 0.00204634713 0.00504435413 0.0444053076
v 0.0140223252 -0.0285650026 0.0249026008
v 0.00204634713 0.00504435413 0.0444053076
v -0.00686363271 -0.0128239831 0.0439432301
v 0.0323065706 7.94372318e-05 0.00482052471
v 0.0368614942 -0.0182852838 0.0136964293
v 0.0453192741 0.0121836429 0.00309717283
v 0.0323065706 7.94372318e-05 0.00482052471
v 0.0453192741 0.0121836429 0.00309717283
v 0.0373335071 0.0240726825 0.0152652441
v 0.00857874379 0.00158095278 0.00910291821
v 0.017379012 0.0169903748 -0.00231447443
v 0.0242622159 0.0278013032 0.0261785686
v 0.00857874379 0.00158095278 0.00910291821
v 0.0242622159 0.0278013032 0.0261785686
v 0.0198371951 0.0117265247 0.0389105976
v 0.0248348992 -0.0351129249 -0.0126709146
v 0.0216325428 -0.0360838398 0.00839187484
v 0.0256632473 -0.00894251559 0.0172355454
v 0.0248348992 -0.0351129249 -0.0126709146
v 0.0256632473 -0.00894251559 0.0172355454
v 0.0398046039 -0.0100092078 0.000282699213
v 0.0182697829 -0.0340372361 0.0285333879
v 0.0329450853 -0.027154386 0.0192793608
v 0.0267898347 -0.00428089174 0.0390232876
v 0.0182697829 -0.0340372361 0.0285333879
v 0.0267898347 -0.00428089174 0.0390232876
v 0.0149462232 -0.00480078254 0.0352234095
v -0.0169056058 -0.0306649879 -0.00481658848
v 0.00294354698 -0.0355113856 0.00759263663
v -0.0155669888 -0.0249319952 0.0323925577
v -0.0169056058 -0.0306649879 -0.00481658848
v -0.0155669888 -0.0249319952 0.0323925577
v -0.0349847078 -0.0210360959 0.0230548065
v -0.019746257 -0.0203046296 -0.0327172987
v -0.00243322388 -0.00865539163 -0.0389978699
v 0.0101259798 -0.00519172382 -0.00615647715
v -0.019746257 -0.0203046296 -0.0327172987
v 0.0101259798 -0.00519172382 -0.00615647715
v -0.0116122002 0.000433518697 -0.0110873058
v 0.0179788359 -0.0171063542 -0.0385664366
v 0.0297330637 -0.0248771664 -0.026192572
v 0.0224693529 -0.0037692925 -0.00798790809
v 0.0179788359 -0.0171063542 -0.0385664366
v 0.0224693529 -0.0037692925 -0.00798790809
v 0.0183921158 -0.0241456907 -0.0094605349
v -0.020325562 0.0173228402 0.0314853303
v -0.0119725997 0.0180824474 0.0108600389
v 0.00528452499 0.0441981256 0.0122754462
v -0.020325562 0.0173228402 0.0314853303
v 0.00528452499 0.0441981256 0.0122754462
v -0.0135341547 0.042425923 0.00967844483
v -0.0159825776 -0.0225865524 0.0021751204
v 0.00433614803 -0.0290742964 0.0100012394
v -0.0218164362 -0.0123821758 0.00846942235
v -0.0159825776 -0.0225865524 0.0021751204
v -0.0218164362 -0.0123821758 0.00846942235
v -0.0262956135 -0.0175747592 0.0334664732
v 0.00146392628 -0.00831516739 0.0119434781
v -0.0159316491 0.000292583485 0.0184462219
v -0.0142150475 0.00900180917 -0.0128919231
v 0.00146392628 -0.00831516739 0.0119434781
v -0.0142150475 0.00900180917 -0.0128919231
v -0.0229572933 -0.00829518493 -0.0102666942
v -0.0250372142 0.020546183 -0.0333606452
v -0.00546719972 0.0205717627 -0.0408479348
v -0.0152415596 0.0332861543 -0.0118524441
v -0.0250372142 0.020546183 -0.0333606452
v -0.0152415596 0.0332861543 -0.0118524441
v 0.00194904581 0.0395901203 -0.02507741
v -0.00667355862 0.020265827 0.0234037228
v 0.003372245 0.0288324337 0.00448385952
v -0.00936360192 0.00433162693 -0.0163718183
v -0.00667355862 0.020265827 0.0234037228
v -0.00936360192 0.00433162693 -0.0163718183
v -0.0033018433 0.0245459266 -0.0102742864
v 0.0177174937 0.0272108857 -0.0095247319
v 0.0337313078 0.0200838447 -0.0229206588
v 0.0262332577 -0.00971322414 -0.0263418909
v 0.0177174937 0.0272108857 -0.0095247319
v 0.0262332577 -0.00971322414 -0.0263418909
v 0.00927720778 -0.00314474059 -0.0171083845
v 0.003372245 0.0288324337 0.00448385952
v 0.0177174937 0.0272108857 -0.0095247319
v 0.00927720778 -0.00314474059 -0.0171083845
v 0.003372245 0.0288324337 0.00448385952
v 0.00927720778 -0.00314474059 -0.0171083845
v -0.00936360192 0.00433162693 -0.0163718183
v 0.0242622159 0.0278013032 0.0261785686
v 0.0373335071 0.0240726825 0.0152652441
v 0.0177174937 0.0272108857 -0.0095247319
v 0.0242622159 0.0278013032 0.0261785686
v 0.0177174937 0.0272108857 -0.0095247319
v 0.003372245 0.0288324337 0.00448385952
v 0.0373335071 0.0240726825 0.0152652441
v 0.0453192741 0.0121836429 0.00309717283
v 0.0337313078 0.0200838447 -0.0229206588
v 0.0373335071 0.0240726825 0.0152652441
v 0.0337313078 0.0200838447 -0.0229206588
v 0.0177174937 0.0272108857 -0.0095247319
v -0.0159316491 0.000292583485 0.0184462219
v -0.00667355862 0.020265827 0.0234037228
v -0.0033018433 0.0245459266 -0.0102742864
v -0.0159316491 0.000292583485 0.0184462219
v -0.0033018433 0.0245459266 -0.0102742864
v -0.0142150475 0.00900180917 -0.0128919231
v 0.00204634713 0.00504435413 0.0444053076
v 0.0198371951 0.0117265247 0.0389105976
v -0.00667355862 0.020265827 0.0234037228
v 0.00204634713 0.00504435413 0.0444053076
v -0.00667355862 0.020265827 0.0234037228
v -0.0159316491 0.000292583485 0.0184462219
v 0.0198371951 0.0117265247 0.0389105976
v 0.0242622159 0.0278013032 0.0261785686
v 0.003372245 0.0288324337 0.00448385952
v 0.0198371951 0.0117265247 0.0389105976
v 0.003372245 0.0288324337 0.00448385952
v -0.00667355862 0.020265827 0.0234037228
v -0.0332091637 0.0289661977 -0.015067026
v -0.0250372142 0.020546183 -0.0333606452
v 0.00194904581 0.0395901203 -0.02507741
v -0.0332091637 0.0289661977 -0.015067026
v 0.00194904581 0.0395901203 -0.02507741
v -0.00632501952 0.0457027815 -0.00616411399
v -0.0142150475 0.00900180917 -0.0128919231
v -0.0033018433 0.0245459266 -0.0102742864
v -0.0250372142 0.020546183 -0.0333606452
v -0.0142150475 0.00900180917 -0.0128919231
v -0.0250372142 0.020546183 -0.0333606452
v -0.0332091637 0.0289661977 -0.015067026
v -0.0033018433 0.0245459266 -0.0102742864
v -0.00936360192 0.00433162693 -0.0163718183
v -0.00546719972 0.0205717627 -0.0408479348
v -0.0033018433 0.0245459266 -0.0102742864
v -0.00546719972 0.0205717627 -0.0408479348
v -0.0250372142 0.020546183 -0.0333606452
v 0.00433614803 -0.0290742964 0.0100012394
v 0.00146392628 -0.00831516739 0.0119434781
v -0.0229572933 -0.00829518493 -0.0102666942
v 0.00433614803 -0.0290742964 0.0100012394
v -0.0229572933 -0.00829518493 -0.0102666942
v -0.0218164362 -0.0123821758 0.00846942235
v -0.0155669888 -0.0249319952 0.0323925577
v -0.00686363271 -0.0128239831 0.0439432301
v 0.00146392628 -0.00831516739 0.0119434781
v -0.0155669888 -0.0249319952 0.0323925577
v 0.00146392628 -0.00831516739 0.0119434781
v 0.00433614803 -0.0290742964 0.0100012394
v -0.00686363271 -0.0128239831 0.0439432301
v 0.00204634713 0.00504435413 0.0444053076
v -0.0159316491 0.000292583485 0.0184462219
v -0.00686363271 -0.0128239831 0.0439432301
v -0.0159316491 0.000292583485 0.0184462219
v 0.00146392628 -0.00831516739 0.0119434781
v -0.02716594 -0.00579805719 -0.00725048035
v -0.0159825776 -0.0225865524 0.0021751204
v -0.0262956135 -0.0175747592 0.0334664732
v -0.02716594 -0.00579805719 -0.00725048035
v -0.0262956135 -0.0175747592 0.0334664732
v -0.0385164954 -0.0142890699 0.0180387478
v -0.0433487296 -0.0123871742 0.0126526821
v -0.0349847078 -0.0210360959 0.0230548065
v -0.0159825776 -0.0225865524 0.0021751204
v -0.0433487296 -0.0123871742 0.0126526821
v -0.0159825776 -0.0225865524 0.0021751204
v -0.02716594 -0.00579805719 -0.00725048035
v -0.0349847078 -0.0210360959 0.0230548065
v -0.0155669888 -0.0249319952 0.0323925577
v 0.00433614803 -0.0290742964 0.0100012394
v -0.0349847078 -0.0210360959 0.0230548065
v 0.00433614803 -0.0290742964 0.0100012394
v -0.0159825776 -0.0225865524 0.0021751204
v -0.0376197472 0.0174714532 0.0185591877
v -0.020325562 0.0173228402 0.0314853303
v -0.0135341547 0.042425923 0.00967844483
v -0.0376197472 0.0174714532 0.0185591877
v -0.0135341547 0.042425923 0.00967844483
v -0.024631314 0.0346668139 -0.00718770875
v -0.0385164954 -0.0142890699 0.0180387478
v -0.0262956135 -0.0175747592 0.0334664732
v -0.020325562 0.0173228402 0.0314853303
v -0.0385164954 -0.0142890699 0.0180387478
v -0.020325562 0.0173228402 0.0314853303
v -0.0376197472 0.0174714532 0.0185591877
v -0.0262956135 -0.0175747592 0.0334664732
v -0.0218164362 -0.0123821758 0.00846942235
v -0.0119725997 0.0180824474 0.0108600389
v -0.0262956135 -0.0175747592 0.0334664732
v -0.0119725997 0.0180824474 0.0108600389
v -0.020325562 0.0173228402 0.0314853303
v -0.00243322388 -0.00865539163 -0.0389978699
v 0.0179788359 -0.0171063542 -0.0385664366
v 0.0183921158 -0.0241456907 -0.0094605349
v -0.00243322388 -0.00865539163 -0.0389978699
v 0.0183921158 -0.0241456907 -0.0094605349
v 0.0101259798 -0.00519172382 -0.00615647715
v 0.0172990337 -0.0304947179 -0.0209960155
v -0.0030398001 -0.0376277827 -0.0274809953
v 0.0179788359 -0.0171063542 -0.0385664366
v 0.0172990337 -0.0304947179 -0.0209960155
v 0.0179788359 -0.0171063542 -0.0385664366
v -0.00243322388 -0.00865539163 -0.0389978699
v -0.0030398001 -0.0376277827 -0.0274809953
v 0.00974058453 -0.0444104373 -0.0107014356
v 0.0297330637 -0.0248771664 -0.026192572
v -0.0030398001 -0.0376277827 -0.0274809953
v 0.0297330637 -0.0248771664 -0.026192572
v 0.0179788359 -0.0171063542 -0.0385664366
v -0.0326042436 -0.0262908731 -0.017490631
v -0.019746257 -0.0203046296 -0.0327172987
v -0.0116122002 0.000433518697 -0.0110873058
v -0.0326042436 -0.0262908731 -0.017490631
v -0.0116122002 0.000433518697 -0.0110873058
v -0.0300216451 0.00656917924 -0.019694902
v -0.0145086152 -0.0441326201 0.00183993648
v -0.000639346312 -0.0425932072 -0.0152101424
v -0.019746257 -0.0203046296 -0.0327172987
v -0.0145086152 -0.0441326201 0.00183993648
v -0.019746257 -0.0203046296 -0.0327172987
v -0.0326042436 -0.0262908731 -0.017490631
v -0.000639346312 -0.0425932072 -0.0152101424
v 0.0172990337 -0.0304947179 -0.0209960155
v -0.00243322388 -0.00865539163 -0.0389978699
v -0.000639346312 -0.0425932072 -0.0152101424
v -0.00243322388 -0.00865539163 -0.0389978699
v -0.019746257 -0.0203046296 -0.0327172987
v -0.0352339186 -0.0259455293 -0.0149580585
v -0.0169056058 -0.0306649879 -0.00481658848
v -0.0349847078 -0.0210360959 0.0230548065
v -0.0352339186 -0.0259455293 -0.0149580585
v -0.0349847078 -0.0210360959 0.0230548065
v -0.0433487296 -0.0123871742 0.0126526821
v -0.0300216451 0.00656917924 -0.019694902
v -0.0116122002 0.000433518697 -0.0110873058
v -0.0169056058 -0.0306649879 -0.00481658848
v -0.0300216451 0.00656917924 -0.019694902
v -0.0169056058 -0.0306649879 -0.00481658848
v -0.0352339186 -0.0259455293 -0.0149580585
v -0.0116122002 0.000433518697 -0.0110873058
v 0.0101259798 -0.00519172382 -0.00615647715
v 0.00294354698 -0.0355113856 0.00759263663
v -0.0116122002 0.000433518697 -0.0110873058
v 0.00294354698 -0.0355113856 0.00759263663
v -0.0169056058 -0.0306649879 -0.00481658848
v 0.0216325428 -0.0360838398 0.00839187484
v 0.0182697829 -0.0340372361 0.0285333879
v 0.0149462232 -0.00480078254 0.0352234095
v 0.0216325428 -0.0360838398 0.00839187484
v 0.0149462232 -0.00480078254 0.0352234095
v 0.0256632473 -0.00894251559 0.0172355454
v -0.0114411637 -0.0421255827 0.000787030498
v 0.013102768 -0.0471628457 0.00314327539
v 0.0182697829 -0.0340372361 0.0285333879
v -0.0114411637 -0.0421255827 0.000787030498
v 0.0182697829 -0.0340372361 0.0285333879
v 0.0216325428 -0.0360838398 0.00839187484
v 0.013102768 -0.0471628457 0.00314327539
v 0.0249929521 -0.0370806679 -0.0102259265
v 0.0329450853 -0.027154386 0.0192793608
v 0.013102768 -0.0471628457 0.00314327539
v 0.0329450853 -0.027154386 0.0192793608
v 0.0182697829 -0.0340372361 0.0285333879
v 0.0297330637 -0.0248771664 -0.026192572
v 0.0248348992 -0.0351129249 -0.0126709146
v 0.0398046039 -0.0100092078 0.000282699213
v 0.0297330637 -0.0248771664 -0.026192572
v 0.0398046039 -0.0100092078 0.000282699213
v 0.0224693529 -0.0037692925 -0.00798790809
v 0.00974058453 -0.0444104373 -0.0107014356
v -0.00763719343 -0.0307893995 -0.0179352853
v 0.0248348992 -0.0351129249 -0.0126709146
v 0.00974058453 -0.0444104373 -0.0107014356
v 0.0248348992 -0.0351129249 -0.0126709146
v 0.0297330637 -0.0248771664 -0.026192572
v -0.00763719343 -0.0307893995 -0.0179352853
v -0.0114411637 -0.0421255827 0.000787030498
v 0.0216325428 -0.0360838398 0.00839187484
v -0.00763719343 -0.0307893995 -0.0179352853
v 0.0216325428 -0.0360838398 0.00839187484
v 0.0248348992 -0.0351129249 -0.0126709146
v 0.01741351 -0.00716712931 0.0259124655
v 0.00857874379 0.00158095278 0.00910291821
v 0.0198371951 0.0117265247 0.0389105976
v 0.01741351 -0.00716712931 0.0259124655
v 0.0198371951 0.0117265247 0.0389105976
v 0.00204634713 0.00504435413 0.0444053076
v 0.0224693529 -0.0037692925 -0.00798790809
v 0.0398046039 -0.0100092078 0.000282699213
v 0.00857874379 0.00158095278 0.00910291821
v 0.0224693529 -0.0037692925 -0.00798790809
v 0.00857874379 0.00158095278 0.00910291821
v 0.01741351 -0.00716712931 0.0259124655
v 0.0398046039 -0.0100092078 0.000282699213
v 0.0256632473 -0.00894251559 0.0172355454
v 0.017379012 0.0169903748 -0.00231447443
v 0.0398046039 -0.0100092078 0.000282699213
v 0.017379012 0.0169903748 -0.00231447443
v 0.00857874379 0.00158095278 0.00910291821
v 0.017379012 0.0169903748 -0.00231447443
v 0.0323065706 7.94372318e-05 0.00482052471
v 0.0373335071 0.0240726825 0.0152652441
v 0.017379012 0.0169903748 -0.00231447443
v 0.0373335071 0.0240726825 0.0152652441
v 0.0242622159 0.0278013032 0.0261785686
v 0.0256632473 -0.00894251559 0.0172355454
v 0.0149462232 -0.00480078254 0.0352234095
v 0.0323065706 7.94372318e-05 0.00482052471
v 0.0256632473 -0.00894251559 0.0172355454
v 0.0323065706 7.94372318e-05 0.00482052471
v 0.017379012 0.0169903748 -0.00231447443
v 0.0149462232 -0.00480078254 0.0352234095
v 0.0267898347 -0.00428089174 0.0390232876
v 0.0368614942 -0.0182852838 0.0136964293
v 0.0149462232 -0.00480078254 0.0352234095
v 0.0368614942 -0.0182852838 0.0136964293
v 0.0323065706 7.94372318e-05 0.00482052471
v 0.00294354698 -0.0355113856 0.00759263663
v 0.0140223252 -0.0285650026 0.0249026008
v -0.00686363271 -0.0128239831 0.0439432301
v 0.00294354698 -0.0355113856 0.00759263663
v -0.00686363271 -0.0128239831 0.0439432301
v -0.0155669888 -0.0249319952 0.0323925577
v 0.0101259798 -0.00519172382 -0.00615647715
v 0.0183921158 -0.0241456907 -0.0094605349
v 0.0140223252 -0.0285650026 0.0249026008
v 0.0101259798 -0.00519172382 -0.00615647715
v 0.0140223252 -0.0285650026 0.0249026008
v 0.00294354698 -0.0355113856 0.00759263663
v 0.0183921158 -0.0241456907 -0.0094605349
v 0.0224693529 -0.0037692925 -0.00798790809
v 0.01741351 -0.00716712931 0.0259124655
v 0.0183921158 -0.0241456907 -0.0094605349
v 0.01741351 -0.00716712931 0.0259124655
v 0.0140223252 -0.0285650026 0.0249026008
v -0.0119725997 0.0180824474 0.0108600389
v -0.0280834977 0.0231016483 0.00121002959
v 0.00306655373 0.0303601157 -0.00258763763
v -0.0119725997 0.0180824474 0.0108600389
v 0.00306655373 0.0303601157 -0.00258763763
v 0.00528452499 0.0441981256 0.0122754462
v -0.0218164362 -0.0123821758 0.00846942235
v -0.0229572933 -0.00829518493 -0.0102666942
v -0.0280834977 0.0231016483 0.00121002959
v -0.0218164362 -0.0123821758 0.00846942235
v -0.0280834977 0.0231016483 0.00121002959
v -0.0119725997 0.0180824474 0.0108600389
v -0.0229572933 -0.00829518493 -0.0102666942
v -0.0142150475 0.00900180917 -0.0128919231
v -0.0332091637 0.0289661977 -0.015067026
v -0.0229572933 -0.00829518493 -0.0102666942
v -0.0332091637 0.0289661977 -0.015067026
v -0.0280834977 0.0231016483 0.00121002959
v -0.00546719972 0.0205717627 -0.0408479348
v 0.01462154 0.0217419453 -0.034957543
v 0.00446917582 0.043616347 -0.00975051802
v -0.00546719972 0.0205717627 -0.0408479348
v 0.00446917582 0.043616347 -0.00975051802
v -0.0152415596 0.0332861543 -0.0118524441
v -0.00936360192 0.00433162693 -0.0163718183
v 0.00927720778 -0.00314474059 -0.0171083845
v 0.01462154 0.0217419453 -0.034957543
v -0.00936360192 0.00433162693 -0.0163718183
v 0.01462154 0.0217419453 -0.034957543
v -0.00546719972 0.0205717627 -0.0408479348
v 0.00927720778 -0.00314474059 -0.0171083845
v 0.0262332577 -0.00971322414 -0.0263418909
v 0.0300636217 0.0222879834 -0.0252587982
v 0.00927720778 -0.00314474059 -0.0171083845
v 0.0300636217 0.0222879834 -0.0252587982
v 0.01462154 0.0217419453 -0.034957543

# 81 UV coordinates
vt 0.875287235 0.127013326 1
vt 1.00038278 0.127013326 1
vt 1.00038278 0.00268441439 1
vt 0.875287235 0.00268441439 1
vt 0.374904275 0.127013326 1
vt 0.50000006 0.127013326 1
vt 0.50000006 0.00268441439 1
vt 0.374904275 0.00268441439 1
vt 0.374904275 0.624328852 1
vt 0.49999997 0.624328911 1
vt 0.49999997 0.5 1
vt 0.374904275 0.5 1
vt 0.875287175 0.624328911 1
vt 1.0003829 0.624328911 1
vt 1.0003829 0.5 1
vt 0.875287175 0.5 1
vt 0.625095725 0.624328911 1
vt 0.75019151 0.624328911 1
vt 0.75019151 0.5 1
vt 0.625095725 0.5 1
vt 0.625095725 0.872986674 1
vt 0.75019145 0.872986674 1
vt 0.75019151 0.748657823 1
vt 0.625095725 0.748657823 1
vt 0.875287175 0.872986674 1
vt 1.0003829 0.872986674 1
vt 1.0003829 0.748657763 1
vt 0.875287294 0.748657763 1
vt 0.124712765 0.624328911 1
vt 0.24980855 0.624328852 1
vt 0.24980855 0.5 1
vt 0.124712765 0.5 1
vt 0.124712765 0.872986674 1
vt 0.24980852 0.872986674 1
vt 0.24980852 0.748657763 1
vt 0.124712765 0.748657763 1
vt 0.374904215 0.872986674 1
vt 0.49999994 0.872986674 1
vt 0.5 0.748657823 1
vt 0.374904215 0.748657823 1
vt 0.124712795 0.127013326 1
vt 0.24980855 0.127013326 1
vt 0.24980855 0.00268441439 1
vt 0.124712795 0.00268435478 1
vt 0.124712765 0.375671089 1
vt 0.24980855 0.375671089 1
vt 0.24980855 0.251342177 1
vt 0.124712765 0.251342177 1
vt 0.374904275 0.375671089 1
vt 0.50000006 0.375671029 1
vt 0.49999997 0.251342177 1
vt 0.374904275 0.251342177 1
vt 0.625095725 0.127013326 1
vt 0.75019151 0.127013326 1
vt 0.75019151 0.00268441439 1
vt 0.625095725 0.00268435478 1
vt 0.625095725 0.375671089 1
vt 0.75019145 0.375671029 1
vt 0.75019151 0.251342177 1
vt 0.625095725 0.251342177 1
vt 0.875287175 0.375671029 1
vt 1.00038278 0.375671029 1
vt 1.00038278 0.251342177 1
vt 0.875287175 0.251342177 1
vt -0.000382959843 0.375671089 1
vt -0.000382959843 0.251342177 1
vt -0.000382959843 0.5 1
vt -0.000382959843 0.127013326 1
vt -0.000382959843 0.00268435478 1
vt 0.24980846 0.997315526 1
vt 0.374904215 0.997315526 1
vt 0.49999994 0.997315526 1
vt -0.000382959843 0.872986674 1
vt -0.000382840633 0.748657763 1
vt -0.000382840633 0.997315526 1
vt 0.124712795 0.997315526 1
vt -0.000382840633 0.624328911 1
vt 0.75019145 0.997315526 1
vt 0.875287175 0.997315645 1
vt 1.0003829 0.997315645 1
vt 0.625095725 0.997315526 1

# 256 vertex normals
vn -0.00373931904 -0.0079547083 0.0047686561
vn -0.00373892486 -0.0079548806 0.00476867752
vn -0.0037395067 -0.00795461796 0.00476866122
vn -0.00373942475 -0.00795465522 0.00476866309
vn 0.00292441901 -0.00539216585 -0.00789761357
vn 0.00292439759 -0.00539210252 -0.00789766572
vn 0.00292381155 -0.00539172208 -0.0078981407
vn 0.00292435451 -0.0053919307 -0.00789779704
vn 0.00614176318 -0.0022079628 0.00757651962
vn 0.00614177017 -0.00220792834 0.00757652242
vn 0.00614180183 -0.00220795185 0.00757648936
vn 0.00614149496 -0.00220822846 0.00757665886
vn 0.00166133791 -0.000382970873 0.00985359121
vn 0.00166193745 -0.000383561943 0.00985346641
vn 0.00166190427 -0.000383576786 0.009853472
vn 0.00166118261 -0.0003836244 0.00985359307
vn 0.00883053616 -0.00455985731 -0.00110875373
vn 0.00883055106 -0.00455985125 -0.00110865501
vn 0.00883054733 -0.00455980888 -0.00110885513
vn 0.00883052871 -0.00455984473 -0.00110886083
vn -0.00811909139 0.0045028734 -0.00371543784
vn -0.00811926648 0.00450267131 -0.00371530023
vn -0.0081189964 0.00450294511 -0.00371555681
vn -0.00811893586 0.00450305315 -0.00371555821
vn 0.00288890628 -0.00390806282 0.00873963628
vn 0.00288880523 -0.00390811358 0.00873964746
vn 0.00288811 -0.00390794687 0.00873995107
vn 0.0028884667 -0.00390823418 0.0087397052
vn -0.00296117365 -0.00942351576 0.00155845401
vn -0.00296115712 -0.00942351948 0.00155846111
vn -0.00296100555 -0.00942356791 0.00155845389
vn -0.00296098017 -0.0094235735 0.00155846844
vn 0.00154619559 -0.00923337135 0.0035148419
vn 0.00154575973 -0.00923328847 0.00351525215
vn 0.0015456581 -0.00923327357 0.0035153355
vn 0.00154631527 -0.00923337881 0.00351476786
vn 0.00407978706 -0.00857292209 0.00314011425
vn 0.00407951605 -0.00857295189 0.0031403848
vn 0.00407992909 -0.00857277866 0.00314032217
vn 0.00407986389 -0.00857304875 0.00313966884
vn 0.00546442065 0.000754947425 0.00834087189
vn 0.00546381483 0.000755928864 0.00834118109
vn 0.00546385534 0.000755502493 0.00834119227
vn 0.00546369189 0.000754976063 0.00834134687
vn 0.00552926585 -0.00185017241 0.00812428724
vn 0.00552842999 -0.00185005285 0.00812488422
vn 0.00552890776 -0.00185032946 0.00812449679
vn 0.00552891381 -0.00185118918 0.00812429748
vn -0.00883644819 -0.00342914602 0.00318718399
vn -0.00883639045 -0.00342867873 0.0031878436
vn -0.00883623678 -0.00342876604 0.00318817887
vn -0.00883612595 -0.00342946942 0.00318772881
vn -0.00914702006 0.000220608505 0.00403526379
vn -0.00914723333 0.000220667105 0.00403477671
vn -0.00914703496 0.000220908347 0.00403521443
vn -0.0091470303 0.000221409515 0.0040351986
vn 0.00255346182 0.0089141503 -0.00374402688
vn 0.00255296519 0.00891464762 -0.00374318031
vn 0.00255364645 0.00891388953 -0.00374452258
vn 0.00255405786 0.00891380664 -0.00374444085
vn -0.00463027973 0.00276721991 -0.00842039194
vn -0.00463009207 0.00276724785 -0.00842048507
vn -0.00463003991 0.00276730536 -0.00842049439
vn -0.00462995004 0.00276733073 -0.00842053536
vn -0.00227009342 0.00515868794 -0.00826042332
vn -0.00226964313 0.00515855011 -0.0082606338
vn -0.00226928061 0.00515875081 -0.00826060679
vn -0.00226927758 0.0051586465 -0.00826067291
vn 0.00152434735 0.00987321232 -0.000442711869
vn 0.00152461138 0.00987317134 -0.000442749035
vn 0.00152404851 0.00987326261 -0.000442631048
vn 0.0015239924 0.00987327192 -0.000442638207
vn 0.00521293376 0.00842281338 -0.00137168029
vn 0.00521339336 0.00842252653 -0.0013717073
vn 0.00521277217 0.00842293724 -0.00137153501
vn 0.00521253794 0.00842307601 -0.00137157377
vn -0.00871866941 0.00488858204 0.000294187863
vn -0.00871874113 0.00488845957 0.00029413405
vn -0.00871853717 0.00488880323 0.00029443673
vn -0.0087184431 0.00488896575 0.00029456988
vn -0.00539003732 0.00559697393 0.00629454944
vn -0.00539020775 0.00559673086 0.00629462162
vn -0.00539044943 0.00559671083 0.00629443163
vn -0.00539047038 0.00559680024 0.00629433338
vn -0.00245714514 0.00816127844 0.00523029128
vn -0.00245724781 0.00816118531 0.00523038907
vn -0.00245699822 0.00816133153 0.00523027638
vn -0.00245650811 0.00816152152 0.00523020979
vn 0.00375842187 -0.007947593 0.00476550125
vn 0.00375840021 -0.00794761069 0.00476549054
vn 0.00375841372 -0.00794755202 0.00476557622
vn 0.0037584044 -0.00794769172 0.0047653513
vn 0.000552956131 0.00881917402 0.00468149409
vn 0.000553649676 0.00881911535 0.00468152156
vn 0.000553681457 0.00881913584 0.00468148012
vn 0.000553043967 0.00881869532 0.0046823849
vn 0.00779264979 0.00612031762 -0.0013476999
vn 0.00779229915 0.0061208629 -0.00134725799
vn 0.00779227261 0.00612082332 -0.00134759117
vn 0.00779249845 0.00612051878 -0.0013476701
vn -0.00214462937 0.00522920862 0.00824960135
vn -0.00214402517 0.00522944098 0.00824961253
vn -0.00214471156 0.00522973761 0.00824924465
vn -0.00214460399 0.00523000816 0.00824910123
vn -0.00839676894 0.00327012269 -0.00433596224
vn -0.00839682389 0.00326983351 -0.00433607306
vn -0.00839678012 0.00326964189 -0.0043363031
vn -0.00839668885 0.00326975458 -0.00433639437
vn -0.00927979872 -0.00338417222 0.00155971118
vn -0.00927970372 -0.00338465115 0.0015592383
vn -0.00927980244 -0.00338452589 0.00155891827
vn -0.00927995425 -0.00338388677 0.00155941315
vn -0.00477149757 -0.00846886262 -0.00234758807
vn -0.00477134809 -0.00846898369 -0.00234744931
vn -0.00477075297 -0.00846926216 -0.00234766025
vn -0.00477131968 -0.0084689809 -0.00234751892
vn 0.0046297065 0.00738219451 0.00490601594
vn 0.00462974235 0.00738217169 0.0049060164
vn 0.00462973909 0.00738201197 0.00490626041
vn 0.00462973723 0.00738188345 0.00490645505
vn 0.00222773408 0.00972177647 0.000724041078
vn 0.00222755549 0.00972185098 0.000723605801
vn 0.00222773501 0.00972178206 0.000723970355
vn 0.0022277697 0.00972175691 0.000724211161
vn -0.00592450285 0.00708368933 0.00383687462
vn -0.00592456432 0.00708368979 0.00383677497
vn -0.00592489168 0.00708378013 0.00383610581
vn -0.00592485815 0.00708377641 0.00383616472
vn -0.00684935274 0.000864125381 0.00723461295
vn -0.00684948731 0.000864133763 0.00723448489
vn -0.00684940862 0.00086412346 0.00723456172
vn -0.00684927497 0.000863886147 0.00723471493
vn 0.00944260787 -0.00229940889 0.00235581002
vn 0.00944262277 -0.00229961216 0.00235555344
vn 0.009442579 -0.00229923544 0.00235610059
vn 0.00944255479 -0.0022990359 0.00235639187
vn -0.0068200496 -0.00724342698 0.00100978767
vn -0.00682017067 -0.00724328868 0.00100996648
vn -0.00682053203 -0.00724287238 0.00101051724
vn -0.00682033598 -0.00724308984 0.00101026602
vn 0.00999436621 -7.94050284e-05 0.00032607984
vn 0.00999436248 -8.00619891e-05 0.000326057925
vn 0.00999436993 -7.99904665e-05 0.000325836503
vn 0.00999437924 -7.88697507e-05 0.000325836794
vn -0.00305871549 0.00723664137 0.00618670043
vn -0.00305872457 0.00723691424 0.00618637679
vn -0.0030586978 0.00723661063 0.00618674513
vn -0.00305865519 0.00723667396 0.00618669251
vn 0.00190921943 -0.00368002965 0.00910012331
vn 0.00190843304 -0.00367985503 0.00910035707
vn 0.00190858683 -0.00367980311 0.00910034776
vn 0.00190927414 -0.00368004781 0.00910010375
vn 0.00368265598 0.00790554285 0.0048928936
vn 0.00368315983 0.0079054134 0.0048927255
vn 0.00368290953 0.00790545903 0.00489283819
vn 0.00368265132 0.00790551677 0.00489294063
vn -0.00102488883 0.00567307696 0.00817103311
vn -0.0010249553 0.00567307649 0.00817102473
vn -0.00102464005 0.0056731035 0.00817104708
vn -0.00102480117 0.00567307696 0.00817104243
vn -0.00513222022 -0.0085075181 0.00113244576
vn -0.00513212848 -0.00850757863 0.00113240513
vn -0.00513251731 -0.00850735232 0.00113234657
vn -0.00513249682 -0.00850738119 0.00113221409
vn 0.00391328475 -0.00219279504 -0.00893743988
vn 0.00391317997 -0.0021928628 -0.00893746968
vn 0.0039134305 -0.00219273195 -0.00893739238
vn 0.00391351571 -0.00219270447 -0.00893736165
vn 0.00284458115 -0.00348866335 -0.00892958883
vn 0.00284461281 -0.00348860724 -0.00892960187
vn 0.00284479558 -0.00348858978 -0.00892955065
vn 0.00284533133 -0.00348821096 -0.0089295255
vn -0.00926335994 0.00110809505 -0.00360031659
vn -0.00926346425 0.00110795221 -0.00360009214
vn -0.00926323514 0.00110829703 -0.00360057573
vn -0.00926311687 0.0011084663 -0.00360082695
vn -0.00697181886 0.00212471629 0.00684684655
vn -0.00697231758 0.00212390465 0.0068465909
vn -0.00697259419 0.00212418032 0.00684622442
vn -0.00697230641 0.00212460733 0.00684638415
vn 0.00628528045 -0.00759290764 0.00168611517
vn 0.00628530188 -0.00759289786 0.00168608734
vn 0.0062851226 -0.00759296073 0.00168646139
vn 0.00628496893 -0.00759302452 0.00168675417
vn -0.00900268927 -0.0012998418 0.00415475387
vn -0.0090023065 -0.00130050327 0.00415537925
vn -0.0090024434 -0.00130077044 0.00415499648
vn -0.00900263898 -0.00130008208 0.00415479019
vn -0.00240214262 0.00188207277 -0.00952299777
vn -0.00240200176 0.00188274228 -0.00952290092
vn -0.00240225764 0.00188220746 -0.00952294283
vn -0.00240232749 0.00188271096 -0.00952282548
vn -0.000803638366 0.00956150517 0.00281633646
vn -0.000804088544 0.00956137199 0.00281666196
vn -0.00080327777 0.00956165232 0.00281594391
vn -0.00080345344 0.00956160203 0.00281606126
vn 0.0094490787 -0.00258954288 0.00200229487
vn 0.00944881607 -0.00259010145 0.00200281409
vn 0.00944896042 -0.00258952938 0.00200286764
vn 0.00944916438 -0.00258927885 0.00200223108
vn 0.00722998148 -0.00217624637 0.00655677542
vn 0.00722879404 -0.00217778725 0.00655757356
vn 0.00722918753 -0.00217665243 0.00655751629
vn 0.00722971559 -0.00217684638 0.00655687135
vn -0.00588381384 -0.00422358746 0.00689507322
vn -0.00588459661 -0.00422333507 0.00689455913
vn -0.00588357542 -0.00422438467 0.00689478684
vn -0.00588358287 -0.00422411086 0.00689495029
vn -0.00374042243 -0.00631661527 0.00679040421
vn -0.00374029158 -0.0063166488 0.00679044472
vn -0.00374011626 -0.00631714705 0.00679007825
vn -0.00374005735 -0.00631678756 0.00679044519
vn -0.0026175743 0.00841984432 0.00471746828
vn -0.00261812424 0.00841958262 0.00471762987
vn -0.00261727511 0.00841979869 0.00471771415
vn -0.00261797989 0.0084192222 0.00471835304
vn 0.00647498434 0.0073583452 0.00198224885
vn 0.00647450052 0.00735855661 0.00198304537
vn 0.00647504302 0.00735811982 0.00198289379
vn 0.00647500809 0.00735826278 0.00198247936
vn 0.000318803766 -0.0084401425 0.00535372179
vn 0.00031838342 -0.00844028406 0.00535352388
vn 0.000318874896 -0.00844008755 0.00535380188
vn 0.000319117593 -0.00843996741 0.00535397837
vn -0.000668576278 -0.00801250245 -0.00594582083
vn -0.000668736408 -0.00801278558 -0.00594542129
vn -0.000668400608 -0.0080126971 -0.00594557915
vn -0.000668444321 -0.00801259466 -0.00594571233
vn 0.00976767577 -0.00181404827 0.00114094082
vn 0.00976766832 -0.00181407074 0.00114096887
vn 0.00976765063 -0.00181414839 0.00114098762
vn 0.00976770464 -0.0018139173 0.00114089565
vn 0.00559155084 -0.00819859654 -0.00123188936
vn 0.00559168728 -0.00819860026 -0.00123125245
vn 0.00559190754 -0.00819845404 -0.00123122672
vn 0.00559155224 -0.00819859747 -0.0012318783
vn 0.00860373862 0.000481467781 -0.0050738412
vn 0.00860340893 0.000481169031 -0.00507442793
vn 0.00860315841 0.000481390161 -0.00507483119
vn 0.00860347599 0.000481154857 -0.0050743157
vn 0.00810954627 0.00288703223 0.00508923363
vn 0.00810992252 0.00288626109 0.00508907251
vn 0.00810995325 0.0028870278 0.00508858683
vn 0.00810946245 0.00288723386 0.00508925132
vn 0.00122156634 -0.00815693196 0.00565439649
vn 0.00122093456 -0.00815697853 0.00565446867
vn 0.00122156716 -0.0081569422 0.00565438252
vn 0.00122172467 -0.00815706793 0.00565416738
vn 0.000232734339 0.00714449631 0.0069929962
vn 0.000233176499 0.00714413915 0.00699334731
vn 0.00023241443 0.0071446714 0.00699282624
vn 0.000232376304 0.00714473892 0.00699275872
vn 0.000377000571 0.00276888791 0.00960162003
vn 0.000376805052 0.00276899803 0.00960159581
vn 0.00037628162 0.00276944903 0.00960148685
vn 0.000376921293 0.00276883296 0.00960163865

# Mesh 'Plane__0' with 128 faces
g Plane__0
usemtl Scene___Root
f  1/1/1 2/2/2 3/3/3
f  4/1/1 5/3/3 6/4/4
f  7/5/5 8/6/6 9/7/7
f  10/5/5 11/7/7 12/8/8
f  13/9/9 14/10/10 15/11/11
f  16/9/9 17/11/11 18/12/12
f  19/13/13 20/14/14 21/15/15
f  22/13/13 23/15/15 24/16/16
f  25/17/17 26/18/18 27/19/19
f  28/17/17 29/19/19 30/20/20
f  31/21/21 32/22/22 33/23/23
f  34/21/21 35/23/23 36/24/24
f  37/25/25 38/26/26 39/27/27
f  40/25/25 41/27/27 42/28/28
f  43/29/29 44/30/30 45/31/31
f  46/29/29 47/31/31 48/32/32
f  49/33/33 50/34/34 51/35/35
f  52/33/33 53/35/35 54/36/36
f  55/37/37 56/38/38 57/39/39
f  58/37/37 59/39/39 60/40/40
f  61/41/41 62/42/42 63/43/43
f  64/41/41 65/43/43 66/44/44
f  67/45/45 68/46/46 69/47/47
f  70/45/45 71/47/47 72/48/48
f  73/49/49 74/50/50 75/51/51
f  76/49/49 77/51/51 78/52/52
f  79/53/53 80/54/54 81/55/55
f  82/53/53 83/55/55 84/56/56
f  85/57/57 86/58/58 87/59/59
f  88/57/57 89/59/59 90/60/60
f  91/61/61 92/62/62 93/63/63
f  94/61/61 95/63/63 96/64/64
f  97/58/65 98/61/66 99/64/67
f  100/58/65 101/64/67 102/59/68
f  103/19/69 104/16/70 105/61/71
f  106/19/69 107/61/71 108/58/72
f  109/16/73 110/15/74 111/62/75
f  112/16/73 113/62/75 114/61/76
f  115/50/77 116/57/78 117/60/79
f  118/50/77 119/60/79 120/51/80
f  121/11/81 122/20/82 123/57/83
f  124/11/81 125/57/83 126/50/84
f  127/20/85 128/19/86 129/58/87
f  130/20/85 131/58/87 132/57/88
f  133/6/89 134/53/90 135/56/91
f  136/6/89 137/56/91 138/7/92
f  139/51/93 140/60/94 141/53/95
f  142/51/93 143/53/95 144/6/96
f  145/60/97 146/59/98 147/54/99
f  148/60/97 149/54/99 150/53/100
f  151/46/101 152/49/102 153/52/103
f  154/46/101 155/52/103 156/47/104
f  157/31/105 158/12/106 159/49/107
f  160/31/105 161/49/107 162/46/108
f  163/12/109 164/11/110 165/50/111
f  166/12/109 167/50/111 168/49/112
f  169/65/113 170/45/114 171/48/115
f  172/65/113 173/48/115 174/66/116
f  175/67/117 176/32/118 177/45/119
f  178/67/117 179/45/119 180/65/120
f  181/32/121 182/31/122 183/46/123
f  184/32/121 185/46/123 186/45/124
f  187/68/125 188/41/126 189/44/127
f  190/68/125 191/44/127 192/69/128
f  193/66/129 194/48/130 195/41/131
f  196/66/129 197/41/131 198/68/132
f  199/48/133 200/47/134 201/42/135
f  202/48/133 203/42/135 204/41/136
f  205/34/137 206/37/138 207/40/139
f  208/34/137 209/40/139 210/35/140
f  211/70/141 212/71/142 213/37/143
f  214/70/141 215/37/143 216/34/144
f  217/71/145 218/72/146 219/38/147
f  220/71/145 221/38/147 222/37/148
f  223/73/149 224/33/150 225/36/151
f  226/73/149 227/36/151 228/74/152
f  229/75/153 230/76/154 231/33/155
f  232/75/153 233/33/155 234/73/156
f  235/76/157 236/70/158 237/34/159
f  238/76/157 239/34/159 240/33/160
f  241/77/161 242/29/162 243/32/163
f  244/77/161 245/32/163 246/67/164
f  247/74/165 248/36/166 249/29/167
f  250/74/165 251/29/167 252/77/168
f  253/36/169 254/35/170 255/30/171
f  256/36/169 257/30/171 258/29/172
f  259/22/173 260/25/174 261/28/175
f  262/22/173 263/28/175 264/23/176
f  265/78/177 266/79/178 267/25/179
f  268/78/177 269/25/179 270/22/180
f  271/79/181 272/80/182 273/26/183
f  274/79/181 275/26/183 276/25/184
f  277/38/185 278/21/186 279/24/187
f  280/38/185 281/24/187 282/39/188
f  283/72/189 284/81/190 285/21/191
f  286/72/189 287/21/191 288/38/192
f  289/81/193 290/78/194 291/22/195
f  292/81/193 293/22/195 294/21/196
f  295/10/197 296/17/198 297/20/199
f  298/10/197 299/20/199 300/11/200
f  301/39/201 302/24/202 303/17/203
f  304/39/201 305/17/203 306/10/204
f  307/24/205 308/23/206 309/18/207
f  310/24/205 311/18/207 312/17/208
f  313/18/209 314/13/210 315/16/211
f  316/18/209 317/16/211 318/19/212
f  319/23/213 320/28/214 321/13/215
f  322/23/213 323/13/215 324/18/216
f  325/28/217 326/27/218 327/14/219
f  328/28/217 329/14/219 330/13/220
f  331/30/221 332/9/222 333/12/223
f  334/30/221 335/12/223 336/31/224
f  337/35/225 338/40/226 339/9/227
f  340/35/225 341/9/227 342/30/228
f  343/40/229 344/39/230 345/10/231
f  346/40/229 347/10/231 348/9/232
f  349/42/233 350/5/234 351/8/235
f  352/42/233 353/8/235 354/43/236
f  355/47/237 356/52/238 357/5/239
f  358/47/237 359/5/239 360/42/240
f  361/52/241 362/51/242 363/6/243
f  364/52/241 365/6/243 366/5/244
f  367/54/245 368/1/246 369/4/247
f  370/54/245 371/4/247 372/55/248
f  373/59/249 374/64/250 375/1/251
f  376/59/249 377/1/251 378/54/252
f  379/64/253 380/63/254 381/2/255
f  382/64/253 383/2/255 384/1/256

